<?xml version="1.0" encoding="utf-8"?>
<!-- Generator: Adobe Illustrator 27.8.1, SVG Export Plug-In . SVG Version: 6.00 Build 0)  -->
<svg version="1.1" id="Layer_1" xmlns="http://www.w3.org/2000/svg" xmlns:xlink="http://www.w3.org/1999/xlink" x="0px" y="0px"
	 viewBox="0 0 520.2 196.9" style="enable-background:new 0 0 520.2 196.9;" xml:space="preserve">
<g id="Logo">
	<g>
		<path d="M61.1,196.4c-46.9,0.5-76.4-54.6-51.4-95.2c2.9-5.7,16.2-23.7,28.2-35c0.3-0.3,0.7,0,0.5,0.4
			C25.3,89.9,7.2,116,14.9,138.4c5.2,14.8,17.2,26.6,31.8,31.1c4.5,1.6,9.5,2.4,14.4,2.4c5,0,9.9-0.8,14.4-2.4
			c14.6-4.5,26.6-16.3,31.8-31.1c7.7-22.5-10.4-48.5-23.5-71.9c-0.2-0.3,0.2-0.6,0.5-0.4c12,11.3,25.3,29.3,28.2,35
			C137.5,141.7,108.1,196.9,61.1,196.4z"/>
		<path d="M97.2,133c0,0.1-0.1,0.2-0.1,0.3c-0.7,2.1-1.6,4.1-2.7,5.9c-3.3,6-8.1,11-13.8,14.5c-5.7,3.5-12.4,5.5-19.6,5.5
			s-13.8-2-19.6-5.5c-5.7-3.5-10.5-8.5-13.8-14.5c-1-1.9-1.9-3.9-2.7-5.9c0-0.1-0.1-0.2-0.1-0.3C22,124,23,111.9,31.3,95.9
			c0.6-1.1,1.1-2.2,1.6-3.2C59.3,41.7,59,0.2,61,0.2s1.7,41.4,28,92.4c0.6,1.1,1.1,2.2,1.6,3.2C99,111.9,100,124,97.2,133z"/>
	</g>
	<g>
		<path d="M244,56v17.7h-40.8c-16.1,0-20.9,7.7-20.9,17.1v9.6h61.1v16.8h-61.1v52.4h-17.7V91c0-20.3,10.5-35,37.4-35H244z"/>
		<path d="M278.5,56v113.6h-15.9V56H278.5z"/>
		<path d="M313.2,90.4v47.4c0,9.3,6.9,16.4,19.5,16.4h12.9c12.6,0,19.4-7.1,19.4-16.4V90.4h15.6v48c0,18.3-11.7,31.2-34.4,31.2
			h-14.7c-22.7,0-34.4-12.9-34.4-31.2v-48H313.2z"/>
		<path d="M415.2,56v19.2h-16.1V56H415.2z M415,87.1v82.5h-15.9V87.1H415z"/>
		<path d="M519.2,56v79.7c0,22.8-10.2,33.9-29.1,33.9h-21.9c-21.2,0-34.4-12.9-34.4-39.6s13.2-39.6,34.4-39.6h35V56H519.2z
			 M503.1,135v-29.3h-33.5c-13.7,0-19.8,7.2-19.8,24.3s6.2,24.2,19.8,24.2h15.8C498.1,154.2,503.1,148.5,503.1,135z"/>
	</g>
</g>
</svg>
