<?xml version="1.0" encoding="utf-8"?>
<!-- Generator: Adobe Illustrator 27.8.1, SVG Export Plug-In . SVG Version: 6.00 Build 0)  -->
<svg version="1.1" id="Layer_1" xmlns="http://www.w3.org/2000/svg" xmlns:xlink="http://www.w3.org/1999/xlink" x="0px" y="0px"
	 viewBox="0 0 520.2 196.9" style="enable-background:new 0 0 520.2 196.9;" xml:space="preserve">
<style type="text/css">
	.st0{fill:url(#SVGID_1_);}
	.st1{fill:url(#SVGID_00000115499780509850202690000007642336782047389335_);}
	.st2{fill:url(#SVGID_00000142857311851401604770000005087110538562734214_);}
	.st3{fill:url(#SVGID_00000173141758991643651830000008258994530457195152_);}
	.st4{fill:url(#SVGID_00000033369488176447639720000001800764795197605044_);}
	.st5{fill:url(#SVGID_00000078744520269042833020000004499369373632489886_);}
	.st6{fill:url(#SVGID_00000061451389663502981490000015250585124342642595_);}
	.st7{fill:url(#SVGID_00000056392346675850660810000000810081294772317613_);}
</style>
<g id="Logo">
	<g>
		<g>
			<linearGradient id="SVGID_1_" gradientUnits="userSpaceOnUse" x1="-31.8128" y1="159.079" x2="181.9761" y2="90.582">
				<stop  offset="0" style="stop-color:#FFFFFF"/>
				<stop  offset="0.1203" style="stop-color:#94FFFF"/>
				<stop  offset="0.3095" style="stop-color:#00FFFF"/>
				<stop  offset="0.6669" style="stop-color:#0000FF"/>
				<stop  offset="0.797" style="stop-color:#FFB1FB"/>
			</linearGradient>
			<path class="st0" d="M61.9,196.3c-46.9,0.5-76.3-54.6-51.4-95.1c2.9-5.7,16.2-23.7,28.2-35c0.3-0.3,0.7,0,0.5,0.4
				C26.1,90,8,116,15.7,138.4c5.2,14.7,17.2,26.5,31.8,31.1c4.5,1.6,9.5,2.4,14.4,2.4c5,0,9.9-0.8,14.4-2.4
				c14.6-4.5,26.6-16.3,31.8-31.1C115.8,116,97.7,90,84.6,66.6c-0.2-0.3,0.2-0.6,0.5-0.4c12,11.3,25.3,29.3,28.2,35
				C138.2,141.7,108.8,196.8,61.9,196.3z"/>
			
				<linearGradient id="SVGID_00000092417913406458216440000015932026631618368137_" gradientUnits="userSpaceOnUse" x1="61.8874" y1="273.5846" x2="61.8874" y2="44.5184">
				<stop  offset="0" style="stop-color:#FFFFFF"/>
				<stop  offset="0.2237" style="stop-color:#94FFFF;stop-opacity:0"/>
				<stop  offset="0.3298" style="stop-color:#00FFFF;stop-opacity:0"/>
				<stop  offset="0.4944" style="stop-color:#0000FF;stop-opacity:0"/>
				<stop  offset="0.8057" style="stop-color:#FFB1FB"/>
			</linearGradient>
			<path style="fill:url(#SVGID_00000092417913406458216440000015932026631618368137_);" d="M61.9,196.3
				c-46.9,0.5-76.3-54.6-51.4-95.1c2.9-5.7,16.2-23.7,28.2-35c0.3-0.3,0.7,0,0.5,0.4C26.1,90,8,116,15.7,138.4
				c5.2,14.7,17.2,26.5,31.8,31.1c4.5,1.6,9.5,2.4,14.4,2.4c5,0,9.9-0.8,14.4-2.4c14.6-4.5,26.6-16.3,31.8-31.1
				C115.8,116,97.7,90,84.6,66.6c-0.2-0.3,0.2-0.6,0.5-0.4c12,11.3,25.3,29.3,28.2,35C138.2,141.7,108.8,196.8,61.9,196.3z"/>
			
				<linearGradient id="SVGID_00000009579488523498267030000014691668722509389756_" gradientUnits="userSpaceOnUse" x1="154.1158" y1="230.152" x2="14.559" y2="82.0079">
				<stop  offset="0.6739" style="stop-color:#FFFFFF;stop-opacity:0"/>
				<stop  offset="0.896" style="stop-color:#00FFFF;stop-opacity:0.9"/>
			</linearGradient>
			<path style="fill:url(#SVGID_00000009579488523498267030000014691668722509389756_);" d="M61.9,196.3
				c-46.9,0.5-76.3-54.6-51.4-95.1c2.9-5.7,16.2-23.7,28.2-35c0.3-0.3,0.7,0,0.5,0.4C26.1,90,8,116,15.7,138.4
				c5.2,14.7,17.2,26.5,31.8,31.1c4.5,1.6,9.5,2.4,14.4,2.4c5,0,9.9-0.8,14.4-2.4c14.6-4.5,26.6-16.3,31.8-31.1
				C115.8,116,97.7,90,84.6,66.6c-0.2-0.3,0.2-0.6,0.5-0.4c12,11.3,25.3,29.3,28.2,35C138.2,141.7,108.8,196.8,61.9,196.3z"/>
			
				<radialGradient id="SVGID_00000041265483635903675630000011925243864882461630_" cx="20.8897" cy="71.1707" r="62.8161" gradientUnits="userSpaceOnUse">
				<stop  offset="0.1991" style="stop-color:#443BFF;stop-opacity:0.9"/>
				<stop  offset="0.6739" style="stop-color:#FFFFFF;stop-opacity:0"/>
			</radialGradient>
			<path style="fill:url(#SVGID_00000041265483635903675630000011925243864882461630_);" d="M61.9,196.3
				c-46.9,0.5-76.3-54.6-51.4-95.1c2.9-5.7,16.2-23.7,28.2-35c0.3-0.3,0.7,0,0.5,0.4C26.1,90,8,116,15.7,138.4
				c5.2,14.7,17.2,26.5,31.8,31.1c4.5,1.6,9.5,2.4,14.4,2.4c5,0,9.9-0.8,14.4-2.4c14.6-4.5,26.6-16.3,31.8-31.1
				C115.8,116,97.7,90,84.6,66.6c-0.2-0.3,0.2-0.6,0.5-0.4c12,11.3,25.3,29.3,28.2,35C138.2,141.7,108.8,196.8,61.9,196.3z"/>
		</g>
		<g>
			
				<linearGradient id="SVGID_00000176758057694251385170000009727444908703476916_" gradientUnits="userSpaceOnUse" x1="61.7491" y1="159.3021" x2="61.7491" y2="0.3516">
				<stop  offset="0.1201" style="stop-color:#6150E3"/>
				<stop  offset="0.3063" style="stop-color:#6353E4"/>
				<stop  offset="0.4208" style="stop-color:#6B5BE6"/>
				<stop  offset="0.516" style="stop-color:#796AEB"/>
				<stop  offset="0.6006" style="stop-color:#8C7EF1"/>
				<stop  offset="0.6774" style="stop-color:#A498F9"/>
				<stop  offset="0.7235" style="stop-color:#B6ACFF"/>
				<stop  offset="0.9106" style="stop-color:#FFB1FB"/>
			</linearGradient>
			<path style="fill:url(#SVGID_00000176758057694251385170000009727444908703476916_);" d="M97.9,133c0,0.1-0.1,0.2-0.1,0.3
				c-0.7,2.1-1.6,4.1-2.7,5.9c-3.3,6-8.1,11-13.8,14.5c-5.7,3.5-12.4,5.5-19.6,5.5s-13.8-2-19.6-5.5c-5.7-3.5-10.5-8.5-13.8-14.5
				c-1-1.9-1.9-3.9-2.7-5.9c0-0.1-0.1-0.2-0.1-0.3c-2.8-9-1.8-21.1,6.5-37.1c0.6-1.1,1.1-2.2,1.6-3.2c26.3-51,26.1-92.4,28-92.4
				c1.9,0,1.7,41.4,28,92.4c0.6,1.1,1.1,2.2,1.6,3.2C99.7,111.9,100.7,124,97.9,133z"/>
			
				<radialGradient id="SVGID_00000027582484391615165970000008865756473976434561_" cx="48.1591" cy="77.2383" r="65.5229" fx="23.1026" fy="112.3302" gradientUnits="userSpaceOnUse">
				<stop  offset="0.1016" style="stop-color:#0000E5"/>
				<stop  offset="0.338" style="stop-color:#0000E5;stop-opacity:0.6179"/>
				<stop  offset="0.8703" style="stop-color:#0000E5;stop-opacity:0"/>
			</radialGradient>
			<path style="fill:url(#SVGID_00000027582484391615165970000008865756473976434561_);" d="M97.9,133c0,0.1-0.1,0.2-0.1,0.3
				c-0.7,2.1-1.6,4.1-2.7,5.9c-3.3,6-8.1,11-13.8,14.5c-5.7,3.5-12.4,5.5-19.6,5.5s-13.8-2-19.6-5.5c-5.7-3.5-10.5-8.5-13.8-14.5
				c-1-1.9-1.9-3.9-2.7-5.9c0-0.1-0.1-0.2-0.1-0.3c-2.8-9-1.8-21.1,6.5-37.1c0.6-1.1,1.1-2.2,1.6-3.2c26.3-51,26.1-92.4,28-92.4
				c1.9,0,1.7,41.4,28,92.4c0.6,1.1,1.1,2.2,1.6,3.2C99.7,111.9,100.7,124,97.9,133z"/>
			
				<radialGradient id="SVGID_00000065068103851353952690000003793161674673537207_" cx="61.4256" cy="117.3613" r="65.5229" fx="36.3691" fy="152.4532" gradientUnits="userSpaceOnUse">
				<stop  offset="0" style="stop-color:#00FFFF"/>
				<stop  offset="0.1187" style="stop-color:#00E3FC;stop-opacity:0.8636"/>
				<stop  offset="0.3761" style="stop-color:#009AF5;stop-opacity:0.5678"/>
				<stop  offset="0.75" style="stop-color:#0027E9;stop-opacity:0.1383"/>
				<stop  offset="0.8703" style="stop-color:#0000E5;stop-opacity:0"/>
			</radialGradient>
			<path style="fill:url(#SVGID_00000065068103851353952690000003793161674673537207_);" d="M97.9,133c0,0.1-0.1,0.2-0.1,0.3
				c-0.7,2.1-1.6,4.1-2.7,5.9c-3.3,6-8.1,11-13.8,14.5c-5.7,3.5-12.4,5.5-19.6,5.5s-13.8-2-19.6-5.5c-5.7-3.5-10.5-8.5-13.8-14.5
				c-1-1.9-1.9-3.9-2.7-5.9c0-0.1-0.1-0.2-0.1-0.3c-2.8-9-1.8-21.1,6.5-37.1c0.6-1.1,1.1-2.2,1.6-3.2c26.3-51,26.1-92.4,28-92.4
				c1.9,0,1.7,41.4,28,92.4c0.6,1.1,1.1,2.2,1.6,3.2C99.7,111.9,100.7,124,97.9,133z"/>
			
				<radialGradient id="SVGID_00000106854461053027106330000002052150055918211972_" cx="101.225" cy="112.5077" r="65.5229" fx="76.1686" fy="147.5996" gradientUnits="userSpaceOnUse">
				<stop  offset="0" style="stop-color:#7D4EE6"/>
				<stop  offset="1" style="stop-color:#7D4EE6;stop-opacity:0"/>
			</radialGradient>
			<path style="fill:url(#SVGID_00000106854461053027106330000002052150055918211972_);" d="M97.9,133c0,0.1-0.1,0.2-0.1,0.3
				c-0.7,2.1-1.6,4.1-2.7,5.9c-3.3,6-8.1,11-13.8,14.5c-5.7,3.5-12.4,5.5-19.6,5.5s-13.8-2-19.6-5.5c-5.7-3.5-10.5-8.5-13.8-14.5
				c-1-1.9-1.9-3.9-2.7-5.9c0-0.1-0.1-0.2-0.1-0.3c-2.8-9-1.8-21.1,6.5-37.1c0.6-1.1,1.1-2.2,1.6-3.2c26.3-51,26.1-92.4,28-92.4
				c1.9,0,1.7,41.4,28,92.4c0.6,1.1,1.1,2.2,1.6,3.2C99.7,111.9,100.7,124,97.9,133z"/>
		</g>
	</g>
	<g>
		<path d="M244,56v17.7h-40.8c-16.1,0-20.9,7.7-20.9,17.1v9.6h61.1v16.8h-61.1v52.4h-17.7V91c0-20.3,10.5-35,37.4-35H244z"/>
		<path d="M278.5,56v113.6h-15.9V56H278.5z"/>
		<path d="M313.2,90.4v47.4c0,9.3,6.9,16.4,19.5,16.4h12.9c12.6,0,19.4-7.1,19.4-16.4V90.4h15.6v48c0,18.3-11.7,31.2-34.4,31.2
			h-14.7c-22.7,0-34.4-12.9-34.4-31.2v-48H313.2z"/>
		<path d="M415.2,56v19.2h-16.1V56H415.2z M415,87.1v82.5h-15.9V87.1H415z"/>
		<path d="M519.2,56v79.7c0,22.8-10.2,33.9-29.1,33.9h-21.9c-21.2,0-34.4-12.9-34.4-39.6s13.2-39.6,34.4-39.6h35V56H519.2z
			 M503.1,135v-29.3h-33.5c-13.7,0-19.8,7.2-19.8,24.3s6.2,24.2,19.8,24.2h15.8C498.1,154.2,503.1,148.5,503.1,135z"/>
	</g>
</g>
</svg>
