<?xml version="1.0" encoding="utf-8"?>
<!-- Generator: Adobe Illustrator 27.8.1, SVG Export Plug-In . SVG Version: 6.00 Build 0)  -->
<svg version="1.1" id="Layer_1" xmlns="http://www.w3.org/2000/svg" xmlns:xlink="http://www.w3.org/1999/xlink" x="0px" y="0px"
	 viewBox="0 0 520.2 196.9" style="enable-background:new 0 0 520.2 196.9;" xml:space="preserve">
<style type="text/css">
	.st0{fill:url(#SVGID_1_);}
	.st1{fill:url(#SVGID_00000147190964956371251590000017781579419851579277_);}
	.st2{fill:url(#SVGID_00000148620954828115060810000013776367287307443638_);}
	.st3{fill:url(#SVGID_00000139259622033625115710000010462401362369610663_);}
	.st4{fill:url(#SVGID_00000051372847999075430620000005515336030911381936_);}
	.st5{fill:url(#SVGID_00000170965952189687108220000002594984181648566151_);}
	.st6{fill:url(#SVGID_00000054946767055504666100000015429459268196100788_);}
	.st7{fill:#FFFFFF;}
</style>
<g id="Logo">
	<g>
		<g>
			<linearGradient id="SVGID_1_" gradientUnits="userSpaceOnUse" x1="-32.6618" y1="159.1254" x2="181.3312" y2="90.5631">
				<stop  offset="0" style="stop-color:#FFFFFF"/>
				<stop  offset="0.1203" style="stop-color:#94FFFF"/>
				<stop  offset="0.3095" style="stop-color:#00FFFF"/>
				<stop  offset="0.6669" style="stop-color:#0000FF"/>
				<stop  offset="0.797" style="stop-color:#FFB1FB"/>
			</linearGradient>
			<path class="st0" d="M61.1,196.4c-46.9,0.5-76.4-54.6-51.4-95.2c2.9-5.7,16.2-23.7,28.2-35c0.3-0.3,0.7,0,0.5,0.4
				C25.3,89.9,7.2,116,14.9,138.4c5.2,14.8,17.2,26.6,31.8,31.1c4.5,1.6,9.5,2.4,14.4,2.4c5,0,9.9-0.8,14.4-2.4
				c14.6-4.5,26.6-16.3,31.8-31.1c7.7-22.5-10.4-48.5-23.5-71.9c-0.2-0.3,0.2-0.6,0.5-0.4c12,11.3,25.3,29.3,28.2,35
				C137.5,141.7,108.1,196.9,61.1,196.4z"/>
			
				<linearGradient id="SVGID_00000111162103501827215830000009548076987079775878_" gradientUnits="userSpaceOnUse" x1="61.1278" y1="273.7403" x2="61.1278" y2="44.4554">
				<stop  offset="0" style="stop-color:#FFFFFF"/>
				<stop  offset="0.2237" style="stop-color:#94FFFF;stop-opacity:0"/>
				<stop  offset="0.3298" style="stop-color:#00FFFF;stop-opacity:0"/>
				<stop  offset="0.4944" style="stop-color:#0000FF;stop-opacity:0"/>
				<stop  offset="0.8057" style="stop-color:#FFB1FB"/>
			</linearGradient>
			<path style="fill:url(#SVGID_00000111162103501827215830000009548076987079775878_);" d="M61.1,196.4
				c-46.9,0.5-76.4-54.6-51.4-95.2c2.9-5.7,16.2-23.7,28.2-35c0.3-0.3,0.7,0,0.5,0.4C25.3,89.9,7.2,116,14.9,138.4
				c5.2,14.8,17.2,26.6,31.8,31.1c4.5,1.6,9.5,2.4,14.4,2.4c5,0,9.9-0.8,14.4-2.4c14.6-4.5,26.6-16.3,31.8-31.1
				c7.7-22.5-10.4-48.5-23.5-71.9c-0.2-0.3,0.2-0.6,0.5-0.4c12,11.3,25.3,29.3,28.2,35C137.5,141.7,108.1,196.9,61.1,196.4z"/>
			
				<linearGradient id="SVGID_00000130634253686946702010000002556334188877702016_" gradientUnits="userSpaceOnUse" x1="153.4443" y1="230.2663" x2="13.7543" y2="81.9808">
				<stop  offset="0.6739" style="stop-color:#FFFFFF;stop-opacity:0"/>
				<stop  offset="0.896" style="stop-color:#00FFFF;stop-opacity:0.9"/>
				<stop  offset="0.952" style="stop-color:#FFFFFF"/>
			</linearGradient>
			<path style="fill:url(#SVGID_00000130634253686946702010000002556334188877702016_);" d="M61.1,196.4
				c-46.9,0.5-76.4-54.6-51.4-95.2c2.9-5.7,16.2-23.7,28.2-35c0.3-0.3,0.7,0,0.5,0.4C25.3,89.9,7.2,116,14.9,138.4
				c5.2,14.8,17.2,26.6,31.8,31.1c4.5,1.6,9.5,2.4,14.4,2.4c5,0,9.9-0.8,14.4-2.4c14.6-4.5,26.6-16.3,31.8-31.1
				c7.7-22.5-10.4-48.5-23.5-71.9c-0.2-0.3,0.2-0.6,0.5-0.4c12,11.3,25.3,29.3,28.2,35C137.5,141.7,108.1,196.9,61.1,196.4z"/>
		</g>
		<g>
			
				<linearGradient id="SVGID_00000023961940408917271290000010272508810605809552_" gradientUnits="userSpaceOnUse" x1="60.9894" y1="159.3488" x2="60.9894" y2="0.2465">
				<stop  offset="0.1201" style="stop-color:#6150E3"/>
				<stop  offset="0.3063" style="stop-color:#6353E4"/>
				<stop  offset="0.4208" style="stop-color:#6B5BE6"/>
				<stop  offset="0.516" style="stop-color:#796AEB"/>
				<stop  offset="0.6006" style="stop-color:#8C7EF1"/>
				<stop  offset="0.6774" style="stop-color:#A498F9"/>
				<stop  offset="0.7235" style="stop-color:#B6ACFF"/>
				<stop  offset="0.9106" style="stop-color:#FFB1FB"/>
			</linearGradient>
			<path style="fill:url(#SVGID_00000023961940408917271290000010272508810605809552_);" d="M97.2,133c0,0.1-0.1,0.2-0.1,0.3
				c-0.7,2.1-1.6,4.1-2.7,5.9c-3.3,6-8.1,11-13.8,14.5c-5.7,3.5-12.4,5.5-19.6,5.5s-13.8-2-19.6-5.5c-5.7-3.5-10.5-8.5-13.8-14.5
				c-1-1.9-1.9-3.9-2.7-5.9c0-0.1-0.1-0.2-0.1-0.3C22,124,23,111.9,31.3,95.9c0.6-1.1,1.1-2.2,1.6-3.2C59.3,41.7,59,0.2,61,0.2
				s1.7,41.4,28,92.4c0.6,1.1,1.1,2.2,1.6,3.2C99,111.9,100,124,97.2,133z"/>
			
				<radialGradient id="SVGID_00000003788710275161572460000015018167877595685769_" cx="47.3864" cy="77.2066" r="65.5855" fx="22.3061" fy="112.332" gradientUnits="userSpaceOnUse">
				<stop  offset="0.1016" style="stop-color:#0000E5"/>
				<stop  offset="0.338" style="stop-color:#0000E5;stop-opacity:0.6179"/>
				<stop  offset="0.8703" style="stop-color:#0000E5;stop-opacity:0"/>
			</radialGradient>
			<path style="fill:url(#SVGID_00000003788710275161572460000015018167877595685769_);" d="M97.2,133c0,0.1-0.1,0.2-0.1,0.3
				c-0.7,2.1-1.6,4.1-2.7,5.9c-3.3,6-8.1,11-13.8,14.5c-5.7,3.5-12.4,5.5-19.6,5.5s-13.8-2-19.6-5.5c-5.7-3.5-10.5-8.5-13.8-14.5
				c-1-1.9-1.9-3.9-2.7-5.9c0-0.1-0.1-0.2-0.1-0.3C22,124,23,111.9,31.3,95.9c0.6-1.1,1.1-2.2,1.6-3.2C59.3,41.7,59,0.2,61,0.2
				s1.7,41.4,28,92.4c0.6,1.1,1.1,2.2,1.6,3.2C99,111.9,100,124,97.2,133z"/>
			
				<radialGradient id="SVGID_00000022524225896927326830000017961317883695751602_" cx="60.6656" cy="117.3679" r="65.5855" fx="35.5852" fy="152.4933" gradientUnits="userSpaceOnUse">
				<stop  offset="0" style="stop-color:#00FFFF"/>
				<stop  offset="0.1187" style="stop-color:#00E3FC;stop-opacity:0.8636"/>
				<stop  offset="0.3761" style="stop-color:#009AF5;stop-opacity:0.5678"/>
				<stop  offset="0.75" style="stop-color:#0027E9;stop-opacity:0.1383"/>
				<stop  offset="0.8703" style="stop-color:#0000E5;stop-opacity:0"/>
			</radialGradient>
			<path style="fill:url(#SVGID_00000022524225896927326830000017961317883695751602_);" d="M97.2,133c0,0.1-0.1,0.2-0.1,0.3
				c-0.7,2.1-1.6,4.1-2.7,5.9c-3.3,6-8.1,11-13.8,14.5c-5.7,3.5-12.4,5.5-19.6,5.5s-13.8-2-19.6-5.5c-5.7-3.5-10.5-8.5-13.8-14.5
				c-1-1.9-1.9-3.9-2.7-5.9c0-0.1-0.1-0.2-0.1-0.3C22,124,23,111.9,31.3,95.9c0.6-1.1,1.1-2.2,1.6-3.2C59.3,41.7,59,0.2,61,0.2
				s1.7,41.4,28,92.4c0.6,1.1,1.1,2.2,1.6,3.2C99,111.9,100,124,97.2,133z"/>
			
				<radialGradient id="SVGID_00000065795909029092217320000010457998264630714040_" cx="100.503" cy="112.5097" r="65.5855" fx="75.4227" fy="147.6351" gradientUnits="userSpaceOnUse">
				<stop  offset="0" style="stop-color:#7D4EE6"/>
				<stop  offset="1" style="stop-color:#7D4EE6;stop-opacity:0"/>
			</radialGradient>
			<path style="fill:url(#SVGID_00000065795909029092217320000010457998264630714040_);" d="M97.2,133c0,0.1-0.1,0.2-0.1,0.3
				c-0.7,2.1-1.6,4.1-2.7,5.9c-3.3,6-8.1,11-13.8,14.5c-5.7,3.5-12.4,5.5-19.6,5.5s-13.8-2-19.6-5.5c-5.7-3.5-10.5-8.5-13.8-14.5
				c-1-1.9-1.9-3.9-2.7-5.9c0-0.1-0.1-0.2-0.1-0.3C22,124,23,111.9,31.3,95.9c0.6-1.1,1.1-2.2,1.6-3.2C59.3,41.7,59,0.2,61,0.2
				s1.7,41.4,28,92.4c0.6,1.1,1.1,2.2,1.6,3.2C99,111.9,100,124,97.2,133z"/>
		</g>
	</g>
	<g>
		<path class="st7" d="M244,56v17.7h-40.8c-16.1,0-20.9,7.7-20.9,17.1v9.6h61.1v16.8h-61.1v52.4h-17.7V91c0-20.3,10.5-35,37.4-35
			H244z"/>
		<path class="st7" d="M278.5,56v113.6h-15.9V56H278.5z"/>
		<path class="st7" d="M313.2,90.4v47.4c0,9.3,6.9,16.4,19.5,16.4h12.9c12.6,0,19.4-7.1,19.4-16.4V90.4h15.6v48
			c0,18.3-11.7,31.2-34.4,31.2h-14.7c-22.7,0-34.4-12.9-34.4-31.2v-48H313.2z"/>
		<path class="st7" d="M415.2,56v19.2h-16.1V56H415.2z M415,87.1v82.5h-15.9V87.1H415z"/>
		<path class="st7" d="M519.2,56v79.7c0,22.8-10.2,33.9-29.1,33.9h-21.9c-21.2,0-34.4-12.9-34.4-39.6s13.2-39.6,34.4-39.6h35V56
			H519.2z M503.1,135v-29.3h-33.5c-13.7,0-19.8,7.2-19.8,24.3s6.2,24.2,19.8,24.2h15.8C498.1,154.2,503.1,148.5,503.1,135z"/>
	</g>
</g>
</svg>
