<?xml version="1.0" encoding="utf-8"?>
<!-- Generator: Adobe Illustrator 27.8.1, SVG Export Plug-In . SVG Version: 6.00 Build 0)  -->
<svg version="1.1" id="Layer_1" xmlns="http://www.w3.org/2000/svg" xmlns:xlink="http://www.w3.org/1999/xlink" x="0px" y="0px"
	 viewBox="0 0 320.6 121.7" style="enable-background:new 0 0 320.6 121.7;" xml:space="preserve">
<style type="text/css">
	.st0{fill:url(#SVGID_1_);}
	.st1{fill:url(#SVGID_00000047759480011772394040000010962137468639695274_);}
	.st2{fill:url(#SVGID_00000133528209611675379310000005199272484967672193_);}
	.st3{fill:url(#SVGID_00000100377269298454925990000006085455819166846850_);}
	.st4{fill:url(#SVGID_00000178896416191886067090000003915360369130226085_);}
	.st5{fill:url(#SVGID_00000156577670834338840150000015755411112760581551_);}
	.st6{fill:url(#SVGID_00000102506232031423992010000013906202711530638740_);}
	.st7{fill:url(#SVGID_00000087394420837206430180000004987515644331058606_);}
</style>
<g id="Logo">
	<g>
		<g>
			<linearGradient id="SVGID_1_" gradientUnits="userSpaceOnUse" x1="-20.0057" y1="98.4819" x2="112.087" y2="56.16">
				<stop  offset="0" style="stop-color:#FFFFFF"/>
				<stop  offset="0.1203" style="stop-color:#94FFFF"/>
				<stop  offset="0.3095" style="stop-color:#00FFFF"/>
				<stop  offset="0.6669" style="stop-color:#0000FF"/>
				<stop  offset="0.797" style="stop-color:#FFB1FB"/>
			</linearGradient>
			<path class="st0" d="M37.9,121.5c-29,0.3-47.2-33.7-31.8-58.7c1.8-3.5,10-14.6,17.4-21.6c0.2-0.2,0.4,0,0.3,0.2
				C15.8,55.8,4.6,71.8,9.4,85.7c3.2,9.1,10.6,16.4,19.6,19.2c2.8,1,5.8,1.5,8.9,1.5c3.1,0,6.1-0.5,8.9-1.5
				c9-2.8,16.4-10.1,19.6-19.2c4.8-13.9-6.4-29.9-14.5-44.4c-0.1-0.2,0.1-0.4,0.3-0.2c7.4,7,15.6,18.1,17.4,21.6
				C85,87.8,66.9,121.8,37.9,121.5z"/>
			
				<linearGradient id="SVGID_00000012462179771751817460000001107763341531212968_" gradientUnits="userSpaceOnUse" x1="37.8884" y1="169.2309" x2="37.8884" y2="27.6989">
				<stop  offset="0" style="stop-color:#FFFFFF"/>
				<stop  offset="0.2237" style="stop-color:#94FFFF;stop-opacity:0"/>
				<stop  offset="0.3298" style="stop-color:#00FFFF;stop-opacity:0"/>
				<stop  offset="0.4944" style="stop-color:#0000FF;stop-opacity:0"/>
				<stop  offset="0.8057" style="stop-color:#FFB1FB"/>
			</linearGradient>
			<path style="fill:url(#SVGID_00000012462179771751817460000001107763341531212968_);" d="M37.9,121.5
				c-29,0.3-47.2-33.7-31.8-58.7c1.8-3.5,10-14.6,17.4-21.6c0.2-0.2,0.4,0,0.3,0.2C15.8,55.8,4.6,71.8,9.4,85.7
				c3.2,9.1,10.6,16.4,19.6,19.2c2.8,1,5.8,1.5,8.9,1.5c3.1,0,6.1-0.5,8.9-1.5c9-2.8,16.4-10.1,19.6-19.2
				c4.8-13.9-6.4-29.9-14.5-44.4c-0.1-0.2,0.1-0.4,0.3-0.2c7.4,7,15.6,18.1,17.4,21.6C85,87.8,66.9,121.8,37.9,121.5z"/>
			
				<linearGradient id="SVGID_00000049933771609286314330000017993567218722068097_" gradientUnits="userSpaceOnUse" x1="94.8731" y1="142.3954" x2="8.6458" y2="50.8624">
				<stop  offset="0.6739" style="stop-color:#FFFFFF;stop-opacity:0"/>
				<stop  offset="0.896" style="stop-color:#00FFFF;stop-opacity:0.9"/>
			</linearGradient>
			<path style="fill:url(#SVGID_00000049933771609286314330000017993567218722068097_);" d="M37.9,121.5
				c-29,0.3-47.2-33.7-31.8-58.7c1.8-3.5,10-14.6,17.4-21.6c0.2-0.2,0.4,0,0.3,0.2C15.8,55.8,4.6,71.8,9.4,85.7
				c3.2,9.1,10.6,16.4,19.6,19.2c2.8,1,5.8,1.5,8.9,1.5c3.1,0,6.1-0.5,8.9-1.5c9-2.8,16.4-10.1,19.6-19.2
				c4.8-13.9-6.4-29.9-14.5-44.4c-0.1-0.2,0.1-0.4,0.3-0.2c7.4,7,15.6,18.1,17.4,21.6C85,87.8,66.9,121.8,37.9,121.5z"/>
			
				<radialGradient id="SVGID_00000114042282270424479310000012865911887736332219_" cx="12.5573" cy="44.1664" r="38.8119" gradientUnits="userSpaceOnUse">
				<stop  offset="0.1991" style="stop-color:#443BFF;stop-opacity:0.9"/>
				<stop  offset="0.6739" style="stop-color:#FFFFFF;stop-opacity:0"/>
			</radialGradient>
			<path style="fill:url(#SVGID_00000114042282270424479310000012865911887736332219_);" d="M37.9,121.5
				c-29,0.3-47.2-33.7-31.8-58.7c1.8-3.5,10-14.6,17.4-21.6c0.2-0.2,0.4,0,0.3,0.2C15.8,55.8,4.6,71.8,9.4,85.7
				c3.2,9.1,10.6,16.4,19.6,19.2c2.8,1,5.8,1.5,8.9,1.5c3.1,0,6.1-0.5,8.9-1.5c9-2.8,16.4-10.1,19.6-19.2
				c4.8-13.9-6.4-29.9-14.5-44.4c-0.1-0.2,0.1-0.4,0.3-0.2c7.4,7,15.6,18.1,17.4,21.6C85,87.8,66.9,121.8,37.9,121.5z"/>
		</g>
		<g>
			
				<linearGradient id="SVGID_00000044166196869738520100000014208223646129528747_" gradientUnits="userSpaceOnUse" x1="37.803" y1="98.6198" x2="37.803" y2="0.4098">
				<stop  offset="0.1201" style="stop-color:#6150E3"/>
				<stop  offset="0.3063" style="stop-color:#6353E4"/>
				<stop  offset="0.4208" style="stop-color:#6B5BE6"/>
				<stop  offset="0.516" style="stop-color:#796AEB"/>
				<stop  offset="0.6006" style="stop-color:#8C7EF1"/>
				<stop  offset="0.6774" style="stop-color:#A498F9"/>
				<stop  offset="0.7235" style="stop-color:#B6ACFF"/>
				<stop  offset="0.9106" style="stop-color:#FFB1FB"/>
			</linearGradient>
			<path style="fill:url(#SVGID_00000044166196869738520100000014208223646129528747_);" d="M60.1,82.4c0,0.1,0,0.1-0.1,0.2
				c-0.5,1.3-1,2.5-1.7,3.7c-2,3.7-5,6.8-8.5,9c-3.5,2.2-7.7,3.4-12.1,3.4s-8.5-1.2-12.1-3.4c-3.5-2.2-6.5-5.3-8.5-9
				c-0.6-1.2-1.2-2.4-1.7-3.7c0-0.1,0-0.1-0.1-0.2c-1.7-5.6-1.1-13,4-22.9c0.3-0.7,0.7-1.3,1-2C36.8,26,36.6,0.4,37.8,0.4
				c1.2,0,1,25.6,17.3,57.1c0.3,0.7,0.7,1.3,1,2C61.3,69.4,61.9,76.8,60.1,82.4z"/>
			
				<radialGradient id="SVGID_00000057148224025864502500000000589922708240806325_" cx="29.4061" cy="47.9154" r="40.4843" fx="13.9246" fy="69.5975" gradientUnits="userSpaceOnUse">
				<stop  offset="0.1016" style="stop-color:#0000E5"/>
				<stop  offset="0.338" style="stop-color:#0000E5;stop-opacity:0.6179"/>
				<stop  offset="0.8703" style="stop-color:#0000E5;stop-opacity:0"/>
			</radialGradient>
			<path style="fill:url(#SVGID_00000057148224025864502500000000589922708240806325_);" d="M60.1,82.4c0,0.1,0,0.1-0.1,0.2
				c-0.5,1.3-1,2.5-1.7,3.7c-2,3.7-5,6.8-8.5,9c-3.5,2.2-7.7,3.4-12.1,3.4s-8.5-1.2-12.1-3.4c-3.5-2.2-6.5-5.3-8.5-9
				c-0.6-1.2-1.2-2.4-1.7-3.7c0-0.1,0-0.1-0.1-0.2c-1.7-5.6-1.1-13,4-22.9c0.3-0.7,0.7-1.3,1-2C36.8,26,36.6,0.4,37.8,0.4
				c1.2,0,1,25.6,17.3,57.1c0.3,0.7,0.7,1.3,1,2C61.3,69.4,61.9,76.8,60.1,82.4z"/>
			
				<radialGradient id="SVGID_00000167370883131903396360000003193362314264687530_" cx="37.603" cy="72.706" r="40.4843" fx="22.1215" fy="94.3881" gradientUnits="userSpaceOnUse">
				<stop  offset="0" style="stop-color:#00FFFF"/>
				<stop  offset="0.1187" style="stop-color:#00E3FC;stop-opacity:0.8636"/>
				<stop  offset="0.3761" style="stop-color:#009AF5;stop-opacity:0.5678"/>
				<stop  offset="0.75" style="stop-color:#0027E9;stop-opacity:0.1383"/>
				<stop  offset="0.8703" style="stop-color:#0000E5;stop-opacity:0"/>
			</radialGradient>
			<path style="fill:url(#SVGID_00000167370883131903396360000003193362314264687530_);" d="M60.1,82.4c0,0.1,0,0.1-0.1,0.2
				c-0.5,1.3-1,2.5-1.7,3.7c-2,3.7-5,6.8-8.5,9c-3.5,2.2-7.7,3.4-12.1,3.4s-8.5-1.2-12.1-3.4c-3.5-2.2-6.5-5.3-8.5-9
				c-0.6-1.2-1.2-2.4-1.7-3.7c0-0.1,0-0.1-0.1-0.2c-1.7-5.6-1.1-13,4-22.9c0.3-0.7,0.7-1.3,1-2C36.8,26,36.6,0.4,37.8,0.4
				c1.2,0,1,25.6,17.3,57.1c0.3,0.7,0.7,1.3,1,2C61.3,69.4,61.9,76.8,60.1,82.4z"/>
			
				<radialGradient id="SVGID_00000091731371875047581000000006716319062663263917_" cx="62.1937" cy="69.7071" r="40.4843" fx="46.7122" fy="91.3892" gradientUnits="userSpaceOnUse">
				<stop  offset="0" style="stop-color:#7D4EE6"/>
				<stop  offset="1" style="stop-color:#7D4EE6;stop-opacity:0"/>
			</radialGradient>
			<path style="fill:url(#SVGID_00000091731371875047581000000006716319062663263917_);" d="M60.1,82.4c0,0.1,0,0.1-0.1,0.2
				c-0.5,1.3-1,2.5-1.7,3.7c-2,3.7-5,6.8-8.5,9c-3.5,2.2-7.7,3.4-12.1,3.4s-8.5-1.2-12.1-3.4c-3.5-2.2-6.5-5.3-8.5-9
				c-0.6-1.2-1.2-2.4-1.7-3.7c0-0.1,0-0.1-0.1-0.2c-1.7-5.6-1.1-13,4-22.9c0.3-0.7,0.7-1.3,1-2C36.8,26,36.6,0.4,37.8,0.4
				c1.2,0,1,25.6,17.3,57.1c0.3,0.7,0.7,1.3,1,2C61.3,69.4,61.9,76.8,60.1,82.4z"/>
		</g>
	</g>
	<g>
		<path d="M150.3,27.9v10.9h-25.2c-9.9,0-12.9,4.7-12.9,10.6v5.9H150v10.4h-37.7V98h-10.9V49.4c0-12.5,6.5-21.6,23.1-21.6H150.3z"/>
		<path d="M171.6,27.9V98h-9.8V27.9H171.6z"/>
		<path d="M193,49.1v29.3c0,5.7,4.3,10.1,12,10.1h8c7.8,0,11.9-4.4,11.9-10.1V49.1h9.6v29.6c0,11.3-7.2,19.3-21.2,19.3h-9.1
			c-14,0-21.2-8-21.2-19.3V49.1H193z"/>
		<path d="M256,27.9v11.9h-9.9V27.9H256z M255.9,47V98h-9.8V47H255.9z"/>
		<path d="M320.2,27.9V77c0,14.1-6.3,20.9-18,20.9h-13.5c-13.1,0-21.2-8-21.2-24.5s8.1-24.5,21.2-24.5h21.6V27.9H320.2z M310.3,76.6
			V58.5h-20.7c-8.4,0-12.2,4.4-12.2,15s3.8,14.9,12.2,14.9h9.7C307.2,88.4,310.3,84.9,310.3,76.6z"/>
	</g>
	<g>
		<path d="M104.2,120.7c-0.7,0-1.2-0.1-1.7-0.3c-0.4-0.2-0.8-0.5-1-0.8c-0.2-0.3-0.4-0.7-0.4-1c0-0.1,0-0.1,0.1-0.2
			c0,0,0.1-0.1,0.2-0.1h0.6c0.1,0,0.2,0,0.2,0.1c0,0,0.1,0.1,0.1,0.2c0,0.2,0.1,0.4,0.3,0.5c0.1,0.2,0.4,0.3,0.6,0.4
			c0.3,0.1,0.6,0.2,1,0.2c0.7,0,1.1-0.1,1.4-0.3c0.3-0.2,0.5-0.5,0.5-0.9c0-0.3-0.1-0.5-0.2-0.6c-0.2-0.2-0.4-0.3-0.7-0.4
			c-0.3-0.1-0.8-0.3-1.3-0.4c-0.6-0.2-1-0.3-1.4-0.5c-0.4-0.2-0.6-0.4-0.8-0.7c-0.2-0.3-0.3-0.6-0.3-1.1c0-0.4,0.1-0.8,0.3-1.1
			c0.2-0.3,0.5-0.6,1-0.8s0.9-0.3,1.5-0.3c0.5,0,0.9,0.1,1.2,0.2c0.4,0.1,0.6,0.3,0.9,0.5c0.2,0.2,0.4,0.4,0.5,0.7
			c0.1,0.2,0.2,0.5,0.2,0.7c0,0.1,0,0.1-0.1,0.2c0,0-0.1,0.1-0.2,0.1h-0.6c-0.1,0-0.1,0-0.2,0c-0.1,0-0.1-0.1-0.1-0.2
			c0-0.3-0.2-0.6-0.5-0.8c-0.3-0.2-0.7-0.3-1.2-0.3c-0.5,0-0.9,0.1-1.2,0.3c-0.3,0.2-0.5,0.5-0.5,0.9c0,0.3,0.1,0.5,0.2,0.6
			c0.1,0.2,0.4,0.3,0.7,0.4c0.3,0.1,0.7,0.3,1.2,0.4c0.6,0.2,1.1,0.3,1.5,0.5c0.4,0.2,0.7,0.4,0.9,0.7c0.2,0.3,0.3,0.6,0.3,1.1
			c0,0.5-0.1,0.9-0.4,1.2c-0.3,0.3-0.6,0.6-1.1,0.8C105.4,120.7,104.8,120.7,104.2,120.7z"/>
		<path d="M110.7,120.6c-0.1,0-0.1,0-0.2-0.1s-0.1-0.1-0.1-0.2v-7.4c0-0.1,0-0.1,0.1-0.2s0.1-0.1,0.2-0.1h0.6c0.1,0,0.1,0,0.2,0.1
			c0,0,0.1,0.1,0.1,0.2v7.4c0,0.1,0,0.1-0.1,0.2c0,0-0.1,0.1-0.2,0.1H110.7z"/>
		<path d="M115.5,120.6c-0.1,0-0.1,0-0.2-0.1s-0.1-0.1-0.1-0.2v-7.4c0-0.1,0-0.2,0.1-0.2s0.1-0.1,0.2-0.1h0.6c0.1,0,0.2,0,0.2,0.1
			c0,0,0.1,0.1,0.1,0.1l2.4,4.6l2.4-4.6c0,0,0-0.1,0.1-0.1c0,0,0.1-0.1,0.2-0.1h0.6c0.1,0,0.1,0,0.2,0.1s0.1,0.1,0.1,0.2v7.4
			c0,0.1,0,0.1-0.1,0.2s-0.1,0.1-0.2,0.1h-0.6c-0.1,0-0.1,0-0.2-0.1s-0.1-0.1-0.1-0.2v-5.6l-1.9,3.7c0,0.1-0.1,0.1-0.1,0.2
			c-0.1,0-0.1,0.1-0.2,0.1h-0.4c-0.1,0-0.2,0-0.2-0.1c-0.1,0-0.1-0.1-0.1-0.2l-1.9-3.7v5.6c0,0.1,0,0.1-0.1,0.2s-0.1,0.1-0.2,0.1
			H115.5z"/>
		<path d="M126.3,120.6c-0.1,0-0.1,0-0.2-0.1c0,0-0.1-0.1-0.1-0.2v-7.4c0-0.1,0-0.2,0.1-0.2c0,0,0.1-0.1,0.2-0.1h2.9
			c0.6,0,1,0.1,1.5,0.3c0.4,0.2,0.7,0.5,1,0.8c0.2,0.4,0.3,0.8,0.3,1.3c0,0.5-0.1,1-0.3,1.3c-0.2,0.4-0.5,0.6-1,0.8
			c-0.4,0.2-0.9,0.3-1.5,0.3h-2v2.8c0,0.1,0,0.1-0.1,0.2c0,0-0.1,0.1-0.2,0.1H126.3z M127.1,116.6h2c0.6,0,1-0.1,1.3-0.4
			c0.3-0.3,0.4-0.6,0.4-1.1c0-0.5-0.1-0.8-0.4-1.1c-0.3-0.3-0.7-0.4-1.3-0.4h-2V116.6z"/>
		<path d="M135.3,120.6c-0.1,0-0.1,0-0.2-0.1s-0.1-0.1-0.1-0.2v-7.4c0-0.1,0-0.1,0.1-0.2s0.1-0.1,0.2-0.1h0.6c0.1,0,0.1,0,0.2,0.1
			s0.1,0.1,0.1,0.2v6.7h3.8c0.1,0,0.1,0,0.2,0.1c0,0,0.1,0.1,0.1,0.2v0.5c0,0.1,0,0.1-0.1,0.2c0,0-0.1,0.1-0.2,0.1H135.3z"/>
		<path d="M143.4,120.6c-0.1,0-0.1,0-0.2-0.1s-0.1-0.1-0.1-0.2v-7.4c0-0.1,0-0.1,0.1-0.2s0.1-0.1,0.2-0.1h0.6c0.1,0,0.1,0,0.2,0.1
			c0,0,0.1,0.1,0.1,0.2v7.4c0,0.1,0,0.1-0.1,0.2c0,0-0.1,0.1-0.2,0.1H143.4z"/>
		<path d="M148.2,120.6c-0.1,0-0.1,0-0.2-0.1s-0.1-0.1-0.1-0.2v-7.4c0-0.1,0-0.2,0.1-0.2s0.1-0.1,0.2-0.1h4.6c0.1,0,0.1,0,0.2,0.1
			c0,0,0.1,0.1,0.1,0.2v0.5c0,0.1,0,0.1-0.1,0.2c0,0-0.1,0.1-0.2,0.1h-3.8v2.7h3.6c0.1,0,0.1,0,0.2,0.1c0,0,0.1,0.1,0.1,0.2v0.5
			c0,0.1,0,0.1-0.1,0.2s-0.1,0.1-0.2,0.1h-3.6v3.1c0,0.1,0,0.1-0.1,0.2c0,0-0.1,0.1-0.2,0.1H148.2z"/>
		<path d="M158.7,120.6c-0.1,0-0.1,0-0.2-0.1c0,0-0.1-0.1-0.1-0.2v-2.7l-2.7-4.6c0,0,0,0,0-0.1c0,0,0,0,0-0.1c0-0.1,0-0.1,0.1-0.2
			c0,0,0.1-0.1,0.2-0.1h0.6c0.1,0,0.1,0,0.2,0.1c0.1,0,0.1,0.1,0.1,0.1l2.2,3.7l2.2-3.7c0-0.1,0.1-0.1,0.1-0.1c0,0,0.1-0.1,0.2-0.1
			h0.6c0.1,0,0.1,0,0.2,0.1c0,0,0.1,0.1,0.1,0.2c0,0,0,0.1,0,0.1c0,0,0,0,0,0.1l-2.7,4.6v2.7c0,0.1,0,0.1-0.1,0.2s-0.1,0.1-0.2,0.1
			H158.7z"/>
		<path d="M171.3,120.6c-0.1,0-0.1,0-0.2-0.1c0,0-0.1-0.1-0.1-0.2v-6.7h-2.2c-0.1,0-0.1,0-0.2-0.1c0,0-0.1-0.1-0.1-0.2v-0.5
			c0-0.1,0-0.2,0.1-0.2c0,0,0.1-0.1,0.2-0.1h5.5c0.1,0,0.1,0,0.2,0.1c0,0,0.1,0.1,0.1,0.2v0.5c0,0.1,0,0.1-0.1,0.2
			c0,0-0.1,0.1-0.2,0.1h-2.2v6.7c0,0.1,0,0.1-0.1,0.2c0,0-0.1,0.1-0.2,0.1H171.3z"/>
		<path d="M177.8,120.6c-0.1,0-0.1,0-0.2-0.1s-0.1-0.1-0.1-0.2v-7.4c0-0.1,0-0.2,0.1-0.2s0.1-0.1,0.2-0.1h0.6c0.1,0,0.1,0,0.2,0.1
			s0.1,0.1,0.1,0.2v3.1h3.9v-3.1c0-0.1,0-0.2,0.1-0.2c0,0,0.1-0.1,0.2-0.1h0.6c0.1,0,0.2,0,0.2,0.1c0,0,0.1,0.1,0.1,0.2v7.4
			c0,0.1,0,0.1-0.1,0.2c0,0-0.1,0.1-0.2,0.1h-0.6c-0.1,0-0.1,0-0.2-0.1c0,0-0.1-0.1-0.1-0.2v-3.3h-3.9v3.3c0,0.1,0,0.1-0.1,0.2
			s-0.1,0.1-0.2,0.1H177.8z"/>
		<path d="M187.7,120.6c-0.1,0-0.1,0-0.2-0.1s-0.1-0.1-0.1-0.2v-7.4c0-0.1,0-0.2,0.1-0.2s0.1-0.1,0.2-0.1h4.7c0.1,0,0.1,0,0.2,0.1
			c0,0,0.1,0.1,0.1,0.2v0.4c0,0.1,0,0.1-0.1,0.2c0,0-0.1,0.1-0.2,0.1h-3.9v2.5h3.6c0.1,0,0.1,0,0.2,0.1c0,0,0.1,0.1,0.1,0.2v0.4
			c0,0.1,0,0.1-0.1,0.2c0,0-0.1,0.1-0.2,0.1h-3.6v2.6h4c0.1,0,0.1,0,0.2,0.1s0.1,0.1,0.1,0.2v0.4c0,0.1,0,0.1-0.1,0.2
			s-0.1,0.1-0.2,0.1H187.7z"/>
		<path d="M200.8,120.6c-0.1,0-0.1,0-0.2-0.1c0,0-0.1-0.1-0.1-0.2v-7.4c0-0.1,0-0.2,0.1-0.2c0,0,0.1-0.1,0.2-0.1h4.6
			c0.1,0,0.1,0,0.2,0.1s0.1,0.1,0.1,0.2v0.5c0,0.1,0,0.1-0.1,0.2c0,0-0.1,0.1-0.2,0.1h-3.8v2.7h3.6c0.1,0,0.1,0,0.2,0.1
			c0,0,0.1,0.1,0.1,0.2v0.5c0,0.1,0,0.1-0.1,0.2c0,0-0.1,0.1-0.2,0.1h-3.6v3.1c0,0.1,0,0.1-0.1,0.2c0,0-0.1,0.1-0.2,0.1H200.8z"/>
		<path d="M209.1,120.6c-0.1,0-0.1,0-0.2-0.1s-0.1-0.1-0.1-0.2v-7.4c0-0.1,0-0.1,0.1-0.2s0.1-0.1,0.2-0.1h0.6c0.1,0,0.1,0,0.2,0.1
			s0.1,0.1,0.1,0.2v6.7h3.8c0.1,0,0.1,0,0.2,0.1s0.1,0.1,0.1,0.2v0.5c0,0.1,0,0.1-0.1,0.2s-0.1,0.1-0.2,0.1H209.1z"/>
		<path d="M219.7,120.7c-0.6,0-1.2-0.1-1.7-0.3c-0.5-0.2-0.8-0.6-1.1-1c-0.3-0.5-0.4-1.1-0.4-1.8c0-0.3,0-0.7,0-1c0-0.3,0-0.6,0-1
			c0-0.7,0.2-1.3,0.4-1.7c0.3-0.5,0.6-0.8,1.1-1c0.5-0.2,1-0.3,1.6-0.3c0.6,0,1.2,0.1,1.6,0.3c0.5,0.2,0.8,0.6,1.1,1
			c0.3,0.5,0.4,1,0.4,1.7c0,0.3,0,0.7,0,1c0,0.3,0,0.6,0,1c0,0.7-0.2,1.3-0.4,1.8c-0.3,0.5-0.6,0.8-1.1,1
			C220.9,120.6,220.4,120.7,219.7,120.7z M219.7,119.8c0.6,0,1.1-0.2,1.4-0.5c0.4-0.3,0.6-0.9,0.6-1.7c0-0.3,0-0.6,0-0.9
			c0-0.3,0-0.6,0-0.9c0-0.5-0.1-0.9-0.3-1.3c-0.2-0.3-0.4-0.6-0.7-0.7c-0.3-0.2-0.6-0.2-1-0.2c-0.4,0-0.7,0.1-1,0.2
			c-0.3,0.2-0.5,0.4-0.7,0.7c-0.2,0.3-0.3,0.8-0.3,1.3c0,0.3,0,0.6,0,0.9c0,0.3,0,0.6,0,0.9c0,0.8,0.2,1.3,0.6,1.7
			C218.7,119.6,219.2,119.8,219.7,119.8z"/>
		<path d="M227.5,120.6c-0.1,0-0.2,0-0.2-0.1c-0.1-0.1-0.1-0.1-0.1-0.2l-1.5-7.3c0,0,0-0.1,0-0.1c0,0,0,0,0,0c0-0.1,0-0.1,0.1-0.2
			c0,0,0.1-0.1,0.2-0.1h0.6c0.2,0,0.3,0.1,0.3,0.2l1.2,5.9l1.2-4c0-0.1,0.1-0.1,0.1-0.2c0.1-0.1,0.1-0.1,0.2-0.1h0.4
			c0.1,0,0.2,0,0.3,0.1c0.1,0.1,0.1,0.1,0.1,0.2l1.2,4l1.1-5.9c0-0.1,0.1-0.2,0.3-0.2h0.6c0.1,0,0.1,0,0.2,0.1c0,0,0.1,0.1,0.1,0.2
			c0,0,0,0,0,0c0,0,0,0,0,0.1l-1.5,7.3c0,0.1-0.1,0.2-0.1,0.2c-0.1,0.1-0.1,0.1-0.2,0.1h-0.4c-0.1,0-0.2,0-0.3-0.1
			c-0.1-0.1-0.1-0.1-0.1-0.2l-1.4-4.3l-1.4,4.3c0,0.1-0.1,0.2-0.1,0.2c-0.1,0.1-0.1,0.1-0.2,0.1H227.5z"/>
		<path d="M244.2,120.7c-0.6,0-1.2-0.1-1.7-0.3c-0.5-0.2-0.8-0.6-1.1-1c-0.3-0.5-0.4-1.1-0.4-1.8c0-0.3,0-0.7,0-1c0-0.3,0-0.6,0-1
			c0-0.7,0.2-1.3,0.4-1.7c0.3-0.5,0.6-0.8,1.1-1c0.5-0.2,1-0.3,1.6-0.3c0.6,0,1.2,0.1,1.6,0.3c0.5,0.2,0.8,0.6,1.1,1
			c0.3,0.5,0.4,1,0.4,1.7c0,0.3,0,0.7,0,1c0,0.3,0,0.6,0,1c0,0.7-0.2,1.3-0.4,1.8c-0.3,0.5-0.6,0.8-1.1,1
			C245.4,120.6,244.8,120.7,244.2,120.7z M244.2,119.8c0.6,0,1.1-0.2,1.4-0.5c0.4-0.3,0.6-0.9,0.6-1.7c0-0.3,0-0.6,0-0.9
			c0-0.3,0-0.6,0-0.9c0-0.5-0.1-0.9-0.3-1.3c-0.2-0.3-0.4-0.6-0.7-0.7c-0.3-0.2-0.6-0.2-1-0.2c-0.4,0-0.7,0.1-1,0.2
			c-0.3,0.2-0.5,0.4-0.7,0.7c-0.2,0.3-0.3,0.8-0.3,1.3c0,0.3,0,0.6,0,0.9c0,0.3,0,0.6,0,0.9c0,0.8,0.2,1.3,0.6,1.7
			C243.1,119.6,243.6,119.8,244.2,119.8z"/>
		<path d="M251,120.6c-0.1,0-0.1,0-0.2-0.1s-0.1-0.1-0.1-0.2v-7.4c0-0.1,0-0.2,0.1-0.2s0.1-0.1,0.2-0.1h4.6c0.1,0,0.1,0,0.2,0.1
			s0.1,0.1,0.1,0.2v0.5c0,0.1,0,0.1-0.1,0.2c0,0-0.1,0.1-0.2,0.1h-3.8v2.7h3.6c0.1,0,0.1,0,0.2,0.1c0,0,0.1,0.1,0.1,0.2v0.5
			c0,0.1,0,0.1-0.1,0.2c0,0-0.1,0.1-0.2,0.1h-3.6v3.1c0,0.1,0,0.1-0.1,0.2c0,0-0.1,0.1-0.2,0.1H251z"/>
		<path d="M265.1,120.6c-0.1,0-0.1,0-0.2-0.1s-0.1-0.1-0.1-0.2v-6.7h-2.2c-0.1,0-0.1,0-0.2-0.1c0,0-0.1-0.1-0.1-0.2v-0.5
			c0-0.1,0-0.2,0.1-0.2s0.1-0.1,0.2-0.1h5.5c0.1,0,0.1,0,0.2,0.1s0.1,0.1,0.1,0.2v0.5c0,0.1,0,0.1-0.1,0.2c0,0-0.1,0.1-0.2,0.1H266
			v6.7c0,0.1,0,0.1-0.1,0.2s-0.1,0.1-0.2,0.1H265.1z"/>
		<path d="M271.7,120.6c-0.1,0-0.1,0-0.2-0.1c0,0-0.1-0.1-0.1-0.2v-7.4c0-0.1,0-0.2,0.1-0.2c0,0,0.1-0.1,0.2-0.1h2.8
			c0.9,0,1.5,0.2,2,0.6c0.5,0.4,0.8,1,0.8,1.8c0,0.6-0.1,1.1-0.4,1.4c-0.3,0.4-0.7,0.6-1.2,0.8l1.8,3c0,0,0,0.1,0,0.1
			c0,0.1,0,0.1-0.1,0.2c0,0-0.1,0.1-0.2,0.1h-0.5c-0.1,0-0.2,0-0.3-0.1c-0.1-0.1-0.1-0.1-0.2-0.2l-1.7-2.9h-2v2.9
			c0,0.1,0,0.1-0.1,0.2c0,0-0.1,0.1-0.2,0.1H271.7z M272.5,116.5h1.9c0.6,0,1-0.1,1.3-0.4c0.3-0.2,0.4-0.6,0.4-1.1
			c0-0.5-0.1-0.8-0.4-1.1c-0.3-0.2-0.7-0.4-1.3-0.4h-1.9V116.5z"/>
		<path d="M280.1,120.6c-0.1,0-0.1,0-0.2-0.1c0,0-0.1-0.1-0.1-0.2c0,0,0-0.1,0-0.1l2.8-7.4c0-0.1,0.1-0.1,0.1-0.2
			c0.1,0,0.1-0.1,0.2-0.1h0.8c0.1,0,0.2,0,0.2,0.1c0.1,0,0.1,0.1,0.1,0.2l2.8,7.4c0,0,0,0.1,0,0.1c0,0.1,0,0.1-0.1,0.2
			c0,0-0.1,0.1-0.2,0.1h-0.6c-0.1,0-0.2,0-0.2-0.1s-0.1-0.1-0.1-0.1l-0.6-1.6h-3.7l-0.6,1.6c0,0,0,0.1-0.1,0.1c0,0-0.1,0.1-0.2,0.1
			H280.1z M281.9,117.8h3.1l-1.5-4L281.9,117.8z"/>
		<path d="M290.2,120.6c-0.1,0-0.1,0-0.2-0.1c0,0-0.1-0.1-0.1-0.2v-7.4c0-0.1,0-0.2,0.1-0.2c0,0,0.1-0.1,0.2-0.1h2.6
			c0.8,0,1.4,0.1,1.9,0.4c0.5,0.2,0.8,0.6,1,1c0.2,0.5,0.3,1,0.3,1.7c0,0.3,0,0.6,0,0.9c0,0.3,0,0.6,0,0.9c0,0.7-0.1,1.3-0.3,1.7
			c-0.2,0.5-0.6,0.8-1,1c-0.5,0.2-1.1,0.3-1.9,0.3H290.2z M291,119.7h1.7c0.5,0,0.9-0.1,1.3-0.2c0.3-0.1,0.5-0.4,0.7-0.7
			c0.1-0.3,0.2-0.7,0.2-1.3c0-0.2,0-0.4,0-0.6s0-0.3,0-0.5c0-0.2,0-0.4,0-0.6c0-0.7-0.2-1.3-0.5-1.6c-0.3-0.4-0.9-0.5-1.7-0.5H291
			V119.7z"/>
		<path d="M299.7,120.6c-0.1,0-0.1,0-0.2-0.1c0,0-0.1-0.1-0.1-0.2v-7.4c0-0.1,0-0.1,0.1-0.2c0,0,0.1-0.1,0.2-0.1h0.6
			c0.1,0,0.1,0,0.2,0.1c0,0,0.1,0.1,0.1,0.2v7.4c0,0.1,0,0.1-0.1,0.2c0,0-0.1,0.1-0.2,0.1H299.7z"/>
		<path d="M304.6,120.6c-0.1,0-0.1,0-0.2-0.1c0,0-0.1-0.1-0.1-0.2v-7.4c0-0.1,0-0.2,0.1-0.2c0,0,0.1-0.1,0.2-0.1h0.5
			c0.1,0,0.2,0,0.2,0.1c0,0,0.1,0.1,0.1,0.1l3.8,5.8v-5.7c0-0.1,0-0.2,0.1-0.2c0,0,0.1-0.1,0.2-0.1h0.5c0.1,0,0.1,0,0.2,0.1
			s0.1,0.1,0.1,0.2v7.4c0,0.1,0,0.1-0.1,0.2c0,0.1-0.1,0.1-0.2,0.1h-0.5c-0.1,0-0.1,0-0.2-0.1c0,0-0.1-0.1-0.1-0.1l-3.8-5.7v5.6
			c0,0.1,0,0.1-0.1,0.2s-0.1,0.1-0.2,0.1H304.6z"/>
		<path d="M316.8,120.7c-0.7,0-1.2-0.1-1.7-0.4c-0.5-0.3-0.8-0.6-1.1-1.1c-0.2-0.5-0.4-1-0.4-1.6c0-0.3,0-0.7,0-1.1
			c0-0.4,0-0.7,0-1.1c0-0.6,0.2-1.1,0.4-1.6c0.2-0.4,0.6-0.8,1.1-1c0.5-0.3,1-0.4,1.7-0.4c0.5,0,1,0.1,1.4,0.2
			c0.4,0.2,0.7,0.3,1,0.6c0.3,0.2,0.4,0.5,0.6,0.7c0.1,0.3,0.2,0.5,0.2,0.7c0,0.1,0,0.1-0.1,0.2c0,0-0.1,0.1-0.2,0.1H319
			c-0.1,0-0.1,0-0.2,0c0,0-0.1-0.1-0.1-0.2c-0.1-0.2-0.2-0.4-0.3-0.6c-0.2-0.2-0.4-0.3-0.6-0.5c-0.3-0.1-0.6-0.2-1-0.2
			c-0.6,0-1.1,0.2-1.5,0.5s-0.6,0.9-0.6,1.6c0,0.7,0,1.4,0,2c0,0.8,0.2,1.3,0.6,1.6c0.4,0.3,0.9,0.5,1.5,0.5c0.4,0,0.8-0.1,1.1-0.2
			c0.3-0.1,0.6-0.4,0.7-0.7c0.2-0.3,0.3-0.7,0.3-1.2v-0.5h-1.7c-0.1,0-0.1,0-0.2-0.1s-0.1-0.1-0.1-0.2v-0.4c0-0.1,0-0.1,0.1-0.2
			s0.1-0.1,0.2-0.1h2.6c0.1,0,0.1,0,0.2,0.1c0,0,0.1,0.1,0.1,0.2v1.1c0,0.6-0.1,1.2-0.4,1.6c-0.3,0.5-0.6,0.8-1.1,1.1
			C318,120.6,317.5,120.7,316.8,120.7z"/>
	</g>
</g>
</svg>
