<?xml version="1.0" encoding="utf-8"?>
<!-- Generator: Adobe Illustrator 27.8.1, SVG Export Plug-In . SVG Version: 6.00 Build 0)  -->
<svg version="1.1" id="Layer_1" xmlns="http://www.w3.org/2000/svg" xmlns:xlink="http://www.w3.org/1999/xlink" x="0px" y="0px"
	 viewBox="0 0 74.1 119.5" style="enable-background:new 0 0 74.1 119.5;" xml:space="preserve">
<path d="M37.1,119.1C8.6,119.5-9.2,86,5.9,61.4C7.7,58,15.7,47.1,23,40.2c0.2-0.2,0.4,0,0.3,0.2C15.4,54.6,4.4,70.4,9.1,84
	c3.2,8.9,10.4,16.1,19.3,18.9c2.7,1,5.7,1.4,8.8,1.4c3,0,6-0.5,8.8-1.4C54.7,100.1,62,93,65.2,84c4.7-13.6-6.3-29.4-14.3-43.6
	c-0.1-0.2,0.1-0.4,0.3-0.2c7.3,6.9,15.4,17.8,17.1,21.2C83.4,86,65.6,119.5,37.1,119.1z"/>
<g>
	<path d="M59,80.7c0,0.1,0,0.1-0.1,0.2c-0.4,1.3-1,2.5-1.6,3.6c-2,3.6-4.9,6.7-8.4,8.8c-3.5,2.1-7.5,3.3-11.9,3.3s-8.4-1.2-11.9-3.3
		c-3.5-2.1-6.4-5.2-8.4-8.8c-0.6-1.1-1.2-2.4-1.6-3.6c0-0.1,0-0.1-0.1-0.2C13.4,75.3,14,67.9,19,58.2c0.3-0.7,0.7-1.3,1-2
		c16-31,15.8-56.1,17-56.1c1.2,0,1,25.1,17,56.1c0.3,0.6,0.7,1.3,1,2C60.1,67.9,60.7,75.3,59,80.7z"/>
</g>
</svg>
