<?xml version="1.0" encoding="utf-8"?>
<!-- Generator: Adobe Illustrator 27.8.1, SVG Export Plug-In . SVG Version: 6.00 Build 0)  -->
<svg version="1.1" id="Layer_1" xmlns="http://www.w3.org/2000/svg" xmlns:xlink="http://www.w3.org/1999/xlink" x="0px" y="0px"
	 viewBox="0 0 74.1 119.5" style="enable-background:new 0 0 74.1 119.5;" xml:space="preserve">
<style type="text/css">
	.st0{fill:url(#SVGID_1_);}
	.st1{fill:url(#SVGID_00000095326651939482496660000010457527443848064912_);}
	.st2{fill:url(#SVGID_00000111152876629675230660000017299498465790894979_);}
	.st3{fill:url(#SVGID_00000097502033331987877570000017903855843369788340_);}
	.st4{fill:url(#SVGID_00000005243085468263320850000016390123613973756849_);}
	.st5{fill:url(#SVGID_00000112615930385267902140000000049594601877082022_);}
	.st6{fill:url(#SVGID_00000153690075332850727730000006891497393307921583_);}
</style>
<g>
	<linearGradient id="SVGID_1_" gradientUnits="userSpaceOnUse" x1="-19.7718" y1="96.5635" x2="110.0152" y2="54.9804">
		<stop  offset="0" style="stop-color:#FFFFFF"/>
		<stop  offset="0.1203" style="stop-color:#94FFFF"/>
		<stop  offset="0.3095" style="stop-color:#00FFFF"/>
		<stop  offset="0.6669" style="stop-color:#0000FF"/>
		<stop  offset="0.797" style="stop-color:#FFB1FB"/>
	</linearGradient>
	<path class="st0" d="M37.1,119.1C8.6,119.5-9.2,86,5.9,61.4C7.7,58,15.7,47.1,23,40.2c0.2-0.2,0.4,0,0.3,0.2
		C15.4,54.6,4.4,70.4,9.1,84c3.2,8.9,10.4,16.1,19.3,18.9c2.7,1,5.7,1.4,8.8,1.4c3,0,6-0.5,8.8-1.4C54.7,100.1,62,93,65.2,84
		c4.7-13.6-6.3-29.4-14.3-43.6c-0.1-0.2,0.1-0.4,0.3-0.2c7.3,6.9,15.4,17.8,17.1,21.2C83.4,86,65.6,119.5,37.1,119.1z"/>
	
		<linearGradient id="SVGID_00000037650639265744033990000004173785664564909199_" gradientUnits="userSpaceOnUse" x1="37.1117" y1="166.0776" x2="37.1117" y2="27.016">
		<stop  offset="0" style="stop-color:#FFFFFF"/>
		<stop  offset="0.2237" style="stop-color:#94FFFF;stop-opacity:0"/>
		<stop  offset="0.3298" style="stop-color:#00FFFF;stop-opacity:0"/>
		<stop  offset="0.4944" style="stop-color:#0000FF;stop-opacity:0"/>
		<stop  offset="0.8057" style="stop-color:#FFB1FB"/>
	</linearGradient>
	<path style="fill:url(#SVGID_00000037650639265744033990000004173785664564909199_);" d="M37.1,119.1C8.6,119.5-9.2,86,5.9,61.4
		C7.7,58,15.7,47.1,23,40.2c0.2-0.2,0.4,0,0.3,0.2C15.4,54.6,4.4,70.4,9.1,84c3.2,8.9,10.4,16.1,19.3,18.9c2.7,1,5.7,1.4,8.8,1.4
		c3,0,6-0.5,8.8-1.4C54.7,100.1,62,93,65.2,84c4.7-13.6-6.3-29.4-14.3-43.6c-0.1-0.2,0.1-0.4,0.3-0.2c7.3,6.9,15.4,17.8,17.1,21.2
		C83.4,86,65.6,119.5,37.1,119.1z"/>
	
		<linearGradient id="SVGID_00000128443078526125303610000008561569515089390502_" gradientUnits="userSpaceOnUse" x1="93.1017" y1="139.7105" x2="8.3796" y2="49.7752">
		<stop  offset="0.6739" style="stop-color:#FFFFFF;stop-opacity:0"/>
		<stop  offset="0.896" style="stop-color:#00FFFF;stop-opacity:0.9"/>
		<stop  offset="0.952" style="stop-color:#FFFFFF"/>
	</linearGradient>
	<path style="fill:url(#SVGID_00000128443078526125303610000008561569515089390502_);" d="M37.1,119.1C8.6,119.5-9.2,86,5.9,61.4
		C7.7,58,15.7,47.1,23,40.2c0.2-0.2,0.4,0,0.3,0.2C15.4,54.6,4.4,70.4,9.1,84c3.2,8.9,10.4,16.1,19.3,18.9c2.7,1,5.7,1.4,8.8,1.4
		c3,0,6-0.5,8.8-1.4C54.7,100.1,62,93,65.2,84c4.7-13.6-6.3-29.4-14.3-43.6c-0.1-0.2,0.1-0.4,0.3-0.2c7.3,6.9,15.4,17.8,17.1,21.2
		C83.4,86,65.6,119.5,37.1,119.1z"/>
</g>
<g>
	
		<linearGradient id="SVGID_00000014607801199333213850000014090164928470848158_" gradientUnits="userSpaceOnUse" x1="37.0278" y1="96.699" x2="37.0278" y2="0.2032">
		<stop  offset="0.1201" style="stop-color:#6150E3"/>
		<stop  offset="0.3063" style="stop-color:#6353E4"/>
		<stop  offset="0.4208" style="stop-color:#6B5BE6"/>
		<stop  offset="0.516" style="stop-color:#796AEB"/>
		<stop  offset="0.6006" style="stop-color:#8C7EF1"/>
		<stop  offset="0.6774" style="stop-color:#A498F9"/>
		<stop  offset="0.7235" style="stop-color:#B6ACFF"/>
		<stop  offset="0.9106" style="stop-color:#FFB1FB"/>
	</linearGradient>
	<path style="fill:url(#SVGID_00000014607801199333213850000014090164928470848158_);" d="M59,80.7c0,0.1,0,0.1-0.1,0.2
		c-0.4,1.3-1,2.5-1.6,3.6c-2,3.6-4.9,6.7-8.4,8.8c-3.5,2.1-7.5,3.3-11.9,3.3s-8.4-1.2-11.9-3.3c-3.5-2.1-6.4-5.2-8.4-8.8
		c-0.6-1.1-1.2-2.4-1.6-3.6c0-0.1,0-0.1-0.1-0.2C13.4,75.3,14,67.9,19,58.2c0.3-0.7,0.7-1.3,1-2c16-31,15.8-56.1,17-56.1
		c1.2,0,1,25.1,17,56.1c0.3,0.6,0.7,1.3,1,2C60.1,67.9,60.7,75.3,59,80.7z"/>
	
		<radialGradient id="SVGID_00000119827111265772388200000013081566632566289047_" cx="28.7775" cy="46.8796" r="39.7777" fx="13.5663" fy="68.1833" gradientUnits="userSpaceOnUse">
		<stop  offset="0.1016" style="stop-color:#0000E5"/>
		<stop  offset="0.338" style="stop-color:#0000E5;stop-opacity:0.6179"/>
		<stop  offset="0.8703" style="stop-color:#0000E5;stop-opacity:0"/>
	</radialGradient>
	<path style="fill:url(#SVGID_00000119827111265772388200000013081566632566289047_);" d="M59,80.7c0,0.1,0,0.1-0.1,0.2
		c-0.4,1.3-1,2.5-1.6,3.6c-2,3.6-4.9,6.7-8.4,8.8c-3.5,2.1-7.5,3.3-11.9,3.3s-8.4-1.2-11.9-3.3c-3.5-2.1-6.4-5.2-8.4-8.8
		c-0.6-1.1-1.2-2.4-1.6-3.6c0-0.1,0-0.1-0.1-0.2C13.4,75.3,14,67.9,19,58.2c0.3-0.7,0.7-1.3,1-2c16-31,15.8-56.1,17-56.1
		c1.2,0,1,25.1,17,56.1c0.3,0.6,0.7,1.3,1,2C60.1,67.9,60.7,75.3,59,80.7z"/>
	
		<radialGradient id="SVGID_00000056430040895583297290000010837739045146453161_" cx="36.8313" cy="71.2375" r="39.7777" fx="21.6201" fy="92.5412" gradientUnits="userSpaceOnUse">
		<stop  offset="0" style="stop-color:#00FFFF"/>
		<stop  offset="0.1187" style="stop-color:#00E3FC;stop-opacity:0.8636"/>
		<stop  offset="0.3761" style="stop-color:#009AF5;stop-opacity:0.5678"/>
		<stop  offset="0.75" style="stop-color:#0027E9;stop-opacity:0.1383"/>
		<stop  offset="0.8703" style="stop-color:#0000E5;stop-opacity:0"/>
	</radialGradient>
	<path style="fill:url(#SVGID_00000056430040895583297290000010837739045146453161_);" d="M59,80.7c0,0.1,0,0.1-0.1,0.2
		c-0.4,1.3-1,2.5-1.6,3.6c-2,3.6-4.9,6.7-8.4,8.8c-3.5,2.1-7.5,3.3-11.9,3.3s-8.4-1.2-11.9-3.3c-3.5-2.1-6.4-5.2-8.4-8.8
		c-0.6-1.1-1.2-2.4-1.6-3.6c0-0.1,0-0.1-0.1-0.2C13.4,75.3,14,67.9,19,58.2c0.3-0.7,0.7-1.3,1-2c16-31,15.8-56.1,17-56.1
		c1.2,0,1,25.1,17,56.1c0.3,0.6,0.7,1.3,1,2C60.1,67.9,60.7,75.3,59,80.7z"/>
	
		<radialGradient id="SVGID_00000139254732406422585540000003326299438850508462_" cx="60.9928" cy="68.291" r="39.7777" fx="45.7815" fy="89.5946" gradientUnits="userSpaceOnUse">
		<stop  offset="0" style="stop-color:#7D4EE6"/>
		<stop  offset="1" style="stop-color:#7D4EE6;stop-opacity:0"/>
	</radialGradient>
	<path style="fill:url(#SVGID_00000139254732406422585540000003326299438850508462_);" d="M59,80.7c0,0.1,0,0.1-0.1,0.2
		c-0.4,1.3-1,2.5-1.6,3.6c-2,3.6-4.9,6.7-8.4,8.8c-3.5,2.1-7.5,3.3-11.9,3.3s-8.4-1.2-11.9-3.3c-3.5-2.1-6.4-5.2-8.4-8.8
		c-0.6-1.1-1.2-2.4-1.6-3.6c0-0.1,0-0.1-0.1-0.2C13.4,75.3,14,67.9,19,58.2c0.3-0.7,0.7-1.3,1-2c16-31,15.8-56.1,17-56.1
		c1.2,0,1,25.1,17,56.1c0.3,0.6,0.7,1.3,1,2C60.1,67.9,60.7,75.3,59,80.7z"/>
</g>
</svg>
