<?xml version="1.0" encoding="utf-8"?>
<!-- Generator: Adobe Illustrator 27.8.1, SVG Export Plug-In . SVG Version: 6.00 Build 0)  -->
<svg version="1.1" id="Layer_1" xmlns="http://www.w3.org/2000/svg" xmlns:xlink="http://www.w3.org/1999/xlink" x="0px" y="0px"
	 viewBox="0 0 74.1 119.5" style="enable-background:new 0 0 74.1 119.5;" xml:space="preserve">
<style type="text/css">
	.st0{fill:url(#SVGID_1_);}
	.st1{fill:url(#SVGID_00000046306507136774243610000014184709266187315342_);}
	.st2{fill:url(#SVGID_00000030467202790398742070000011424726027714946459_);}
	.st3{fill:url(#SVGID_00000121270404683307471740000007613208541630544828_);}
	.st4{fill:url(#SVGID_00000132085485774798273930000001536347515719153056_);}
	.st5{fill:url(#SVGID_00000146458132899713142860000010059169146208293515_);}
	.st6{fill:url(#SVGID_00000138575048840549628220000009796010147029124786_);}
	.st7{fill:url(#SVGID_00000090994573426158855020000010917769668277855360_);}
</style>
<g>
	<g>
		<linearGradient id="SVGID_1_" gradientUnits="userSpaceOnUse" x1="-19.7718" y1="96.6385" x2="110.0152" y2="55.0554">
			<stop  offset="0" style="stop-color:#FFFFFF"/>
			<stop  offset="0.1203" style="stop-color:#94FFFF"/>
			<stop  offset="0.3095" style="stop-color:#00FFFF"/>
			<stop  offset="0.6669" style="stop-color:#0000FF"/>
			<stop  offset="0.797" style="stop-color:#FFB1FB"/>
		</linearGradient>
		<path class="st0" d="M37.1,119.2C8.6,119.5-9.2,86.1,5.9,61.5C7.7,58,15.7,47.1,23,40.3c0.2-0.2,0.4,0,0.3,0.2
			c-7.9,14.2-18.9,30-14.3,43.6c3.2,8.9,10.4,16.1,19.3,18.9c2.7,1,5.7,1.4,8.8,1.4c3,0,6-0.5,8.8-1.4c8.9-2.7,16.1-9.9,19.3-18.9
			c4.7-13.6-6.3-29.4-14.3-43.6c-0.1-0.2,0.1-0.4,0.3-0.2c7.3,6.9,15.4,17.8,17.1,21.2C83.4,86.1,65.6,119.5,37.1,119.2z"/>
		
			<linearGradient id="SVGID_00000080891227568856115920000003931322710245445779_" gradientUnits="userSpaceOnUse" x1="37.1117" y1="166.1526" x2="37.1117" y2="27.0911">
			<stop  offset="0" style="stop-color:#FFFFFF"/>
			<stop  offset="0.2237" style="stop-color:#94FFFF;stop-opacity:0"/>
			<stop  offset="0.3298" style="stop-color:#00FFFF;stop-opacity:0"/>
			<stop  offset="0.4944" style="stop-color:#0000FF;stop-opacity:0"/>
			<stop  offset="0.8057" style="stop-color:#FFB1FB"/>
		</linearGradient>
		<path style="fill:url(#SVGID_00000080891227568856115920000003931322710245445779_);" d="M37.1,119.2C8.6,119.5-9.2,86.1,5.9,61.5
			C7.7,58,15.7,47.1,23,40.3c0.2-0.2,0.4,0,0.3,0.2c-7.9,14.2-18.9,30-14.3,43.6c3.2,8.9,10.4,16.1,19.3,18.9c2.7,1,5.7,1.4,8.8,1.4
			c3,0,6-0.5,8.8-1.4c8.9-2.7,16.1-9.9,19.3-18.9c4.7-13.6-6.3-29.4-14.3-43.6c-0.1-0.2,0.1-0.4,0.3-0.2
			c7.3,6.9,15.4,17.8,17.1,21.2C83.4,86.1,65.6,119.5,37.1,119.2z"/>
		
			<linearGradient id="SVGID_00000021087540996319859190000016508391786247490694_" gradientUnits="userSpaceOnUse" x1="93.1017" y1="139.7856" x2="8.3796" y2="49.8502">
			<stop  offset="0.6739" style="stop-color:#FFFFFF;stop-opacity:0"/>
			<stop  offset="0.896" style="stop-color:#00FFFF;stop-opacity:0.9"/>
		</linearGradient>
		<path style="fill:url(#SVGID_00000021087540996319859190000016508391786247490694_);" d="M37.1,119.2C8.6,119.5-9.2,86.1,5.9,61.5
			C7.7,58,15.7,47.1,23,40.3c0.2-0.2,0.4,0,0.3,0.2c-7.9,14.2-18.9,30-14.3,43.6c3.2,8.9,10.4,16.1,19.3,18.9c2.7,1,5.7,1.4,8.8,1.4
			c3,0,6-0.5,8.8-1.4c8.9-2.7,16.1-9.9,19.3-18.9c4.7-13.6-6.3-29.4-14.3-43.6c-0.1-0.2,0.1-0.4,0.3-0.2
			c7.3,6.9,15.4,17.8,17.1,21.2C83.4,86.1,65.6,119.5,37.1,119.2z"/>
		
			<radialGradient id="SVGID_00000053542402793746337690000000577127599657056400_" cx="12.2228" cy="43.2711" r="38.1344" gradientUnits="userSpaceOnUse">
			<stop  offset="0.1991" style="stop-color:#443BFF;stop-opacity:0.9"/>
			<stop  offset="0.6739" style="stop-color:#FFFFFF;stop-opacity:0"/>
		</radialGradient>
		<path style="fill:url(#SVGID_00000053542402793746337690000000577127599657056400_);" d="M37.1,119.2C8.6,119.5-9.2,86.1,5.9,61.5
			C7.7,58,15.7,47.1,23,40.3c0.2-0.2,0.4,0,0.3,0.2c-7.9,14.2-18.9,30-14.3,43.6c3.2,8.9,10.4,16.1,19.3,18.9c2.7,1,5.7,1.4,8.8,1.4
			c3,0,6-0.5,8.8-1.4c8.9-2.7,16.1-9.9,19.3-18.9c4.7-13.6-6.3-29.4-14.3-43.6c-0.1-0.2,0.1-0.4,0.3-0.2
			c7.3,6.9,15.4,17.8,17.1,21.2C83.4,86.1,65.6,119.5,37.1,119.2z"/>
	</g>
	<g>
		
			<linearGradient id="SVGID_00000081622025754574030630000013585673090128542859_" gradientUnits="userSpaceOnUse" x1="37.0278" y1="96.774" x2="37.0278" y2="0.2783">
			<stop  offset="0.1201" style="stop-color:#6150E3"/>
			<stop  offset="0.3063" style="stop-color:#6353E4"/>
			<stop  offset="0.4208" style="stop-color:#6B5BE6"/>
			<stop  offset="0.516" style="stop-color:#796AEB"/>
			<stop  offset="0.6006" style="stop-color:#8C7EF1"/>
			<stop  offset="0.6774" style="stop-color:#A498F9"/>
			<stop  offset="0.7235" style="stop-color:#B6ACFF"/>
			<stop  offset="0.9106" style="stop-color:#FFB1FB"/>
		</linearGradient>
		<path style="fill:url(#SVGID_00000081622025754574030630000013585673090128542859_);" d="M59,80.8c0,0.1,0,0.1-0.1,0.2
			c-0.4,1.3-1,2.5-1.6,3.6c-2,3.6-4.9,6.7-8.4,8.8c-3.5,2.1-7.5,3.3-11.9,3.3s-8.4-1.2-11.9-3.3c-3.5-2.1-6.4-5.2-8.4-8.8
			c-0.6-1.1-1.2-2.4-1.6-3.6c0-0.1,0-0.1-0.1-0.2C13.4,75.3,14,68,19,58.3c0.3-0.7,0.7-1.3,1-2c16-31,15.8-56.1,17-56.1
			c1.2,0,1,25.1,17,56.1c0.3,0.6,0.7,1.3,1,2C60.1,68,60.7,75.3,59,80.8z"/>
		
			<radialGradient id="SVGID_00000156561438285881643020000008001317466849479305_" cx="28.7775" cy="46.9547" r="39.7777" fx="13.5663" fy="68.2583" gradientUnits="userSpaceOnUse">
			<stop  offset="0.1016" style="stop-color:#0000E5"/>
			<stop  offset="0.338" style="stop-color:#0000E5;stop-opacity:0.6179"/>
			<stop  offset="0.8703" style="stop-color:#0000E5;stop-opacity:0"/>
		</radialGradient>
		<path style="fill:url(#SVGID_00000156561438285881643020000008001317466849479305_);" d="M59,80.8c0,0.1,0,0.1-0.1,0.2
			c-0.4,1.3-1,2.5-1.6,3.6c-2,3.6-4.9,6.7-8.4,8.8c-3.5,2.1-7.5,3.3-11.9,3.3s-8.4-1.2-11.9-3.3c-3.5-2.1-6.4-5.2-8.4-8.8
			c-0.6-1.1-1.2-2.4-1.6-3.6c0-0.1,0-0.1-0.1-0.2C13.4,75.3,14,68,19,58.3c0.3-0.7,0.7-1.3,1-2c16-31,15.8-56.1,17-56.1
			c1.2,0,1,25.1,17,56.1c0.3,0.6,0.7,1.3,1,2C60.1,68,60.7,75.3,59,80.8z"/>
		
			<radialGradient id="SVGID_00000145048701539282155300000012867533477885337735_" cx="36.8313" cy="71.3126" r="39.7777" fx="21.6201" fy="92.6162" gradientUnits="userSpaceOnUse">
			<stop  offset="0" style="stop-color:#00FFFF"/>
			<stop  offset="0.1187" style="stop-color:#00E3FC;stop-opacity:0.8636"/>
			<stop  offset="0.3761" style="stop-color:#009AF5;stop-opacity:0.5678"/>
			<stop  offset="0.75" style="stop-color:#0027E9;stop-opacity:0.1383"/>
			<stop  offset="0.8703" style="stop-color:#0000E5;stop-opacity:0"/>
		</radialGradient>
		<path style="fill:url(#SVGID_00000145048701539282155300000012867533477885337735_);" d="M59,80.8c0,0.1,0,0.1-0.1,0.2
			c-0.4,1.3-1,2.5-1.6,3.6c-2,3.6-4.9,6.7-8.4,8.8c-3.5,2.1-7.5,3.3-11.9,3.3s-8.4-1.2-11.9-3.3c-3.5-2.1-6.4-5.2-8.4-8.8
			c-0.6-1.1-1.2-2.4-1.6-3.6c0-0.1,0-0.1-0.1-0.2C13.4,75.3,14,68,19,58.3c0.3-0.7,0.7-1.3,1-2c16-31,15.8-56.1,17-56.1
			c1.2,0,1,25.1,17,56.1c0.3,0.6,0.7,1.3,1,2C60.1,68,60.7,75.3,59,80.8z"/>
		
			<radialGradient id="SVGID_00000161594185775242033010000007323057386379358634_" cx="60.9928" cy="68.366" r="39.7777" fx="45.7815" fy="89.6696" gradientUnits="userSpaceOnUse">
			<stop  offset="0" style="stop-color:#7D4EE6"/>
			<stop  offset="1" style="stop-color:#7D4EE6;stop-opacity:0"/>
		</radialGradient>
		<path style="fill:url(#SVGID_00000161594185775242033010000007323057386379358634_);" d="M59,80.8c0,0.1,0,0.1-0.1,0.2
			c-0.4,1.3-1,2.5-1.6,3.6c-2,3.6-4.9,6.7-8.4,8.8c-3.5,2.1-7.5,3.3-11.9,3.3s-8.4-1.2-11.9-3.3c-3.5-2.1-6.4-5.2-8.4-8.8
			c-0.6-1.1-1.2-2.4-1.6-3.6c0-0.1,0-0.1-0.1-0.2C13.4,75.3,14,68,19,58.3c0.3-0.7,0.7-1.3,1-2c16-31,15.8-56.1,17-56.1
			c1.2,0,1,25.1,17,56.1c0.3,0.6,0.7,1.3,1,2C60.1,68,60.7,75.3,59,80.8z"/>
	</g>
</g>
</svg>
